<svg xmlns="http://www.w3.org/2000/svg" viewBox="0 0 32 32">
  <rect width="32" height="32" fill="#66a3ff"/>
  <rect x="4" y="4" width="4" height="4" fill="white"/>
  <rect x="12" y="4" width="4" height="4" fill="white"/>
  <rect x="20" y="4" width="4" height="4" fill="white"/>
  <rect x="8" y="8" width="4" height="4" fill="white"/>
  <rect x="16" y="8" width="4" height="4" fill="white"/>
  <rect x="4" y="12" width="4" height="4" fill="white"/>
  <rect x="12" y="12" width="4" height="4" fill="white"/>
  <rect x="20" y="12" width="4" height="4" fill="white"/>
  <rect x="28" y="12" width="4" height="4" fill="white"/>
  <rect x="8" y="16" width="4" height="4" fill="white"/>
  <rect x="16" y="16" width="4" height="4" fill="white"/>
  <rect x="24" y="16" width="4" height="4" fill="white"/>
  <rect x="4" y="20" width="4" height="4" fill="white"/>
  <rect x="12" y="20" width="4" height="4" fill="white"/>
  <rect x="20" y="20" width="4" height="4" fill="white"/>
  <rect x="28" y="20" width="4" height="4" fill="white"/>
  <rect x="8" y="24" width="4" height="4" fill="white"/>
  <rect x="16" y="24" width="4" height="4" fill="white"/>
  <rect x="12" y="28" width="4" height="4" fill="white"/>
</svg>